<?xml version="1.0" encoding="UTF-8" ?>
<svg version="1.1" width="360" height="672" xmlns="http://www.w3.org/2000/svg" shape-rendering="crispEdges">
<rect x="144" y="48" width="24" height="216" fill="#000000" />
<rect x="168" y="72" width="24" height="72" fill="#000000" />
<rect x="120" y="120" width="24" height="120" fill="#000000" />
<rect x="168" y="192" width="24" height="120" fill="#000000" />
<rect x="192" y="264" width="24" height="96" fill="#000000" />
<rect x="120" y="288" width="24" height="72" fill="#000000" />
<rect x="216" y="288" width="24" height="168" fill="#000000" />
<rect x="96" y="336" width="24" height="120" fill="#000000" />
<rect x="240" y="336" width="24" height="96" fill="#000000" />
<rect x="72" y="360" width="24" height="48" fill="#000000" />
<rect x="120" y="408" width="24" height="72" fill="#000000" />
<rect x="192" y="408" width="24" height="72" fill="#000000" />
<rect x="48" y="432" width="24" height="120" fill="#000000" />
<rect x="144" y="432" width="48" height="48" fill="#000000" />
<rect x="288" y="432" width="24" height="120" fill="#000000" />
<rect x="72" y="480" width="24" height="96" fill="#000000" />
<rect x="264" y="480" width="24" height="96" fill="#000000" />
<rect x="96" y="504" width="48" height="72" fill="#000000" />
<rect x="216" y="504" width="48" height="96" fill="#000000" />
<rect x="24" y="528" width="24" height="24" fill="#000000" />
<rect x="312" y="528" width="24" height="24" fill="#000000" />
<rect x="144" y="552" width="24" height="72" fill="#000000" />
<rect x="192" y="552" width="24" height="72" fill="#000000" />
<rect x="120" y="576" width="24" height="24" fill="#000000" />
<rect x="168" y="576" width="24" height="72" fill="#000000" />
</svg>